# MagicaVoxel @ Ephtracy

# group
o 

# material
mtllib Luffi.mtl
usemtl palette

# normals
vn -1 0 0
vn 1 0 0
vn 0 0 1
vn 0 0 -1
vn 0 -1 0
vn 0 1 0

# texcoords
vt 0.0332031 0.5
vt 0.232422 0.5
vt 0.544922 0.5
vt 0.841797 0.5
vt 0.876953 0.5
vt 0.958984 0.5

# verts
v -1.5 2.5 0
v -1.5 2.5 -0.1
v -1.5 2.7 0
v -1.5 2.7 -0.1
v -1.3 2.5 0.1
v -1.3 2.5 0
v -1.3 2.5 -0.1
v -1.3 2.5 -0.2
v -1.3 2.7 0.1
v -1.3 2.7 0
v -1.3 2.7 -0.1
v -1.3 2.7 -0.2
v -0.5 2.8 0.2
v -0.5 2.8 -0.3
v -0.5 3.5 0.2
v -0.5 3.5 -0.3
v -0.5 3.7 0.2
v -0.5 3.7 -0.3
v -0.4 0 0.4
v -0.4 0 -0.2
v -0.4 0.1 0.4
v -0.4 0.1 0.1
v -0.4 0.1 -0.2
v -0.4 1.5 0.1
v -0.4 1.5 -0.2
v -0.4 2.5 0.1
v -0.4 2.5 -0.2
v -0.2 2.7 0.1
v -0.2 2.7 -0.2
v -0.2 2.8 0.1
v -0.2 2.8 -0.2
v -0.1 3.1 0.3
v -0.1 3.1 0.2
v -0.1 3.2 0.3
v -0.1 3.2 0.2
v 0.1 0 0.4
v 0.1 0 -0.2
v 0.1 0.1 0.4
v 0.1 0.1 0.1
v 0.1 0.1 -0.2
v 0.1 1.2 0.1
v 0.1 1.2 -0.2
v -0.1 0 0.4
v -0.1 0 -0.2
v -0.1 0.1 0.4
v -0.1 0.1 0.1
v -0.1 0.1 -0.2
v -0.1 1.2 0.1
v -0.1 1.2 -0.2
v 0.1 3.1 0.3
v 0.1 3.1 0.2
v 0.1 3.2 0.3
v 0.1 3.2 0.2
v 0.2 2.7 0.1
v 0.2 2.7 -0.2
v 0.2 2.8 0.1
v 0.2 2.8 -0.2
v 0.4 0 0.4
v 0.4 0 -0.2
v 0.4 0.1 0.4
v 0.4 0.1 0.1
v 0.4 0.1 -0.2
v 0.4 1.5 0.1
v 0.4 1.5 -0.2
v 0.4 2.5 0.1
v 0.4 2.5 -0.2
v 0.5 2.8 0.2
v 0.5 2.8 -0.3
v 0.5 3.5 0.2
v 0.5 3.5 -0.3
v 0.5 3.7 0.2
v 0.5 3.7 -0.3
v 1.3 2.5 0.1
v 1.3 2.5 0
v 1.3 2.5 -0.1
v 1.3 2.5 -0.2
v 1.3 2.7 0.1
v 1.3 2.7 0
v 1.3 2.7 -0.1
v 1.3 2.7 -0.2
v 1.5 2.5 0
v 1.5 2.5 -0.1
v 1.5 2.7 0
v 1.5 2.7 -0.1
v -0.4 0 0.4
v -0.4 0.1 0.4
v -0.1 0 0.4
v -0.1 0.1 0.4
v 0.1 0 0.4
v 0.1 0.1 0.4
v 0.4 0 0.4
v 0.4 0.1 0.4
v -0.1 3.1 0.3
v -0.1 3.2 0.3
v 0.1 3.1 0.3
v 0.1 3.2 0.3
v -0.5 2.8 0.2
v -0.5 3.5 0.2
v -0.5 3.7 0.2
v -0.4 3.5 0.2
v -0.4 3.6 0.2
v -0.3 3.2 0.2
v -0.3 3.3 0.2
v -0.3 3.4 0.2
v -0.1 2.9 0.2
v -0.1 3 0.2
v -0.1 3.1 0.2
v -0.1 3.2 0.2
v -0.1 3.3 0.2
v -0.1 3.4 0.2
v 0.1 2.9 0.2
v 0.1 3 0.2
v 0.1 3.1 0.2
v 0.1 3.2 0.2
v 0.1 3.3 0.2
v 0.1 3.4 0.2
v 0.3 3.2 0.2
v 0.3 3.3 0.2
v 0.3 3.4 0.2
v 0.4 3.5 0.2
v 0.4 3.6 0.2
v 0.5 2.8 0.2
v 0.5 3.5 0.2
v 0.5 3.7 0.2
v -1.3 2.5 0.1
v -1.3 2.7 0.1
v -1.2 2.5 0.1
v -1.2 2.7 0.1
v -0.4 0.1 0.1
v -0.4 1.5 0.1
v -0.4 2.5 0.1
v -0.2 2.6 0.1
v -0.2 2.7 0.1
v -0.2 2.8 0.1
v -0.1 0.1 0.1
v -0.1 1.2 0.1
v 0.1 0.1 0.1
v 0.1 1.2 0.1
v 0.2 2.6 0.1
v 0.2 2.7 0.1
v 0.2 2.8 0.1
v 0.4 0.1 0.1
v 0.4 1.5 0.1
v 0.4 2.5 0.1
v 1.2 2.5 0.1
v 1.2 2.7 0.1
v 1.3 2.5 0.1
v 1.3 2.7 0.1
v -1.5 2.5 0
v -1.5 2.7 0
v -1.3 2.5 0
v -1.3 2.7 0
v 1.3 2.5 0
v 1.3 2.7 0
v 1.5 2.5 0
v 1.5 2.7 0
v -1.5 2.5 -0.1
v -1.5 2.7 -0.1
v -1.3 2.5 -0.1
v -1.3 2.7 -0.1
v 1.3 2.5 -0.1
v 1.3 2.7 -0.1
v 1.5 2.5 -0.1
v 1.5 2.7 -0.1
v -1.3 2.5 -0.2
v -1.3 2.7 -0.2
v -1.2 2.5 -0.2
v -1.2 2.7 -0.2
v -0.4 0 -0.2
v -0.4 0.1 -0.2
v -0.4 1.5 -0.2
v -0.4 2.5 -0.2
v -0.2 2.6 -0.2
v -0.2 2.7 -0.2
v -0.2 2.8 -0.2
v -0.1 0 -0.2
v -0.1 0.1 -0.2
v -0.1 1.2 -0.2
v 0.1 0 -0.2
v 0.1 0.1 -0.2
v 0.1 1.2 -0.2
v 0.2 2.6 -0.2
v 0.2 2.7 -0.2
v 0.2 2.8 -0.2
v 0.4 0 -0.2
v 0.4 0.1 -0.2
v 0.4 1.5 -0.2
v 0.4 2.5 -0.2
v 1.2 2.5 -0.2
v 1.2 2.7 -0.2
v 1.3 2.5 -0.2
v 1.3 2.7 -0.2
v -0.5 2.8 -0.3
v -0.5 3.5 -0.3
v -0.5 3.7 -0.3
v -0.4 3.5 -0.3
v -0.4 3.6 -0.3
v 0.4 3.5 -0.3
v 0.4 3.6 -0.3
v 0.5 2.8 -0.3
v 0.5 3.5 -0.3
v 0.5 3.7 -0.3
v -0.4 0 0.4
v -0.1 0 0.4
v 0.1 0 0.4
v 0.4 0 0.4
v -0.4 0 -0.2
v -0.1 0 -0.2
v 0.1 0 -0.2
v 0.4 0 -0.2
v -0.1 1.2 0.1
v 0.1 1.2 0.1
v -0.1 1.2 -0.2
v 0.1 1.2 -0.2
v -1.3 2.5 0.1
v -1.2 2.5 0.1
v -0.4 2.5 0.1
v 0.4 2.5 0.1
v 1.2 2.5 0.1
v 1.3 2.5 0.1
v -1.5 2.5 0
v -1.3 2.5 0
v 1.3 2.5 0
v 1.5 2.5 0
v -1.5 2.5 -0.1
v -1.3 2.5 -0.1
v 1.3 2.5 -0.1
v 1.5 2.5 -0.1
v -1.3 2.5 -0.2
v -1.2 2.5 -0.2
v -0.4 2.5 -0.2
v 0.4 2.5 -0.2
v 1.2 2.5 -0.2
v 1.3 2.5 -0.2
v -0.5 2.8 0.2
v 0.5 2.8 0.2
v -0.2 2.8 0.1
v 0.2 2.8 0.1
v -0.2 2.8 -0.2
v 0.2 2.8 -0.2
v -0.5 2.8 -0.3
v 0.5 2.8 -0.3
v -0.1 3.1 0.3
v 0.1 3.1 0.3
v -0.1 3.1 0.2
v 0.1 3.1 0.2
v -0.4 0.1 0.4
v -0.1 0.1 0.4
v 0.1 0.1 0.4
v 0.4 0.1 0.4
v -0.4 0.1 0.1
v -0.1 0.1 0.1
v 0.1 0.1 0.1
v 0.4 0.1 0.1
v -1.3 2.7 0.1
v -1.2 2.7 0.1
v -0.2 2.7 0.1
v 0.2 2.7 0.1
v 1.2 2.7 0.1
v 1.3 2.7 0.1
v -1.5 2.7 0
v -1.3 2.7 0
v 1.3 2.7 0
v 1.5 2.7 0
v -1.5 2.7 -0.1
v -1.3 2.7 -0.1
v 1.3 2.7 -0.1
v 1.5 2.7 -0.1
v -1.3 2.7 -0.2
v -1.2 2.7 -0.2
v -0.2 2.7 -0.2
v 0.2 2.7 -0.2
v 1.2 2.7 -0.2
v 1.3 2.7 -0.2
v -0.1 3.2 0.3
v 0.1 3.2 0.3
v -0.1 3.2 0.2
v 0.1 3.2 0.2
v -0.5 3.7 0.2
v 0.5 3.7 0.2
v -0.5 3.7 -0.3
v 0.5 3.7 -0.3

# faces
f 3/1/1 2/1/1 1/1/1
f 4/1/1 2/1/1 3/1/1
f 9/1/1 6/1/1 5/1/1
f 10/1/1 6/1/1 9/1/1
f 11/1/1 8/1/1 7/1/1
f 12/1/1 8/1/1 11/1/1
f 15/1/1 14/1/1 13/1/1
f 16/1/1 14/1/1 15/1/1
f 17/5/1 16/5/1 15/5/1
f 18/5/1 16/5/1 17/5/1
f 21/2/1 20/2/1 19/2/1
f 22/2/1 20/2/1 21/2/1
f 23/2/1 20/2/1 22/2/1
f 24/3/1 23/3/1 22/3/1
f 25/3/1 23/3/1 24/3/1
f 26/6/1 25/6/1 24/6/1
f 27/6/1 25/6/1 26/6/1
f 30/1/1 29/1/1 28/1/1
f 31/1/1 29/1/1 30/1/1
f 34/1/1 33/1/1 32/1/1
f 35/1/1 33/1/1 34/1/1
f 38/2/1 37/2/1 36/2/1
f 39/2/1 37/2/1 38/2/1
f 40/2/1 37/2/1 39/2/1
f 41/3/1 40/3/1 39/3/1
f 42/3/1 40/3/1 41/3/1
f 43/2/2 44/2/2 45/2/2
f 45/2/2 44/2/2 46/2/2
f 46/2/2 44/2/2 47/2/2
f 46/3/2 47/3/2 48/3/2
f 48/3/2 47/3/2 49/3/2
f 50/1/2 51/1/2 52/1/2
f 52/1/2 51/1/2 53/1/2
f 54/1/2 55/1/2 56/1/2
f 56/1/2 55/1/2 57/1/2
f 58/2/2 59/2/2 60/2/2
f 60/2/2 59/2/2 61/2/2
f 61/2/2 59/2/2 62/2/2
f 61/3/2 62/3/2 63/3/2
f 63/3/2 62/3/2 64/3/2
f 63/6/2 64/6/2 65/6/2
f 65/6/2 64/6/2 66/6/2
f 67/1/2 68/1/2 69/1/2
f 69/1/2 68/1/2 70/1/2
f 69/5/2 70/5/2 71/5/2
f 71/5/2 70/5/2 72/5/2
f 73/1/2 74/1/2 77/1/2
f 77/1/2 74/1/2 78/1/2
f 75/1/2 76/1/2 79/1/2
f 79/1/2 76/1/2 80/1/2
f 81/1/2 82/1/2 83/1/2
f 83/1/2 82/1/2 84/1/2
f 87/2/3 86/2/3 85/2/3
f 88/2/3 86/2/3 87/2/3
f 91/2/3 90/2/3 89/2/3
f 92/2/3 90/2/3 91/2/3
f 95/1/3 94/1/3 93/1/3
f 96/1/3 94/1/3 95/1/3
f 100/1/3 98/1/3 97/1/3
f 100/5/3 99/5/3 98/5/3
f 101/5/3 99/5/3 100/5/3
f 102/1/3 100/1/3 97/1/3
f 102/1/3 101/1/3 100/1/3
f 103/1/3 101/1/3 102/1/3
f 104/1/3 101/1/3 103/1/3
f 105/1/3 102/1/3 97/1/3
f 106/1/3 102/1/3 105/1/3
f 107/1/3 102/1/3 106/1/3
f 108/5/3 103/5/3 102/5/3
f 108/1/3 102/1/3 107/1/3
f 109/6/3 104/6/3 103/6/3
f 109/5/3 103/5/3 108/5/3
f 110/1/3 101/1/3 104/1/3
f 110/6/3 104/6/3 109/6/3
f 111/1/3 105/1/3 97/1/3
f 111/5/3 106/5/3 105/5/3
f 112/1/3 107/1/3 106/1/3
f 112/5/3 106/5/3 111/5/3
f 113/1/3 107/1/3 112/1/3
f 114/1/3 109/1/3 108/1/3
f 114/1/3 110/1/3 109/1/3
f 115/1/3 110/1/3 114/1/3
f 116/1/3 101/1/3 110/1/3
f 116/1/3 110/1/3 115/1/3
f 117/1/3 113/1/3 112/1/3
f 117/5/3 115/5/3 114/5/3
f 117/1/3 112/1/3 111/1/3
f 117/1/3 114/1/3 113/1/3
f 118/6/3 116/6/3 115/6/3
f 118/5/3 115/5/3 117/5/3
f 119/1/3 101/1/3 116/1/3
f 119/6/3 116/6/3 118/6/3
f 120/1/3 118/1/3 117/1/3
f 120/1/3 101/1/3 119/1/3
f 120/1/3 119/1/3 118/1/3
f 121/5/3 99/5/3 101/5/3
f 121/1/3 101/1/3 120/1/3
f 122/1/3 120/1/3 117/1/3
f 122/1/3 111/1/3 97/1/3
f 122/1/3 117/1/3 111/1/3
f 123/5/3 121/5/3 120/5/3
f 123/1/3 120/1/3 122/1/3
f 124/5/3 99/5/3 121/5/3
f 124/5/3 121/5/3 123/5/3
f 127/1/3 126/1/3 125/1/3
f 128/1/3 126/1/3 127/1/3
f 131/4/3 128/4/3 127/4/3
f 132/4/3 128/4/3 131/4/3
f 133/4/3 128/4/3 132/4/3
f 135/3/3 130/3/3 129/3/3
f 136/3/3 130/3/3 135/3/3
f 138/3/3 130/3/3 136/3/3
f 139/1/3 134/1/3 133/1/3
f 139/1/3 133/1/3 132/1/3
f 139/4/3 132/4/3 131/4/3
f 140/1/3 134/1/3 139/1/3
f 141/1/3 134/1/3 140/1/3
f 142/3/3 138/3/3 137/3/3
f 143/3/3 130/3/3 138/3/3
f 143/3/3 138/3/3 142/3/3
f 143/6/3 131/6/3 130/6/3
f 144/4/3 140/4/3 139/4/3
f 144/6/3 131/6/3 143/6/3
f 144/4/3 139/4/3 131/4/3
f 145/4/3 140/4/3 144/4/3
f 146/4/3 140/4/3 145/4/3
f 147/1/3 146/1/3 145/1/3
f 148/1/3 146/1/3 147/1/3
f 151/1/3 150/1/3 149/1/3
f 152/1/3 150/1/3 151/1/3
f 155/1/3 154/1/3 153/1/3
f 156/1/3 154/1/3 155/1/3
f 157/1/4 158/1/4 159/1/4
f 159/1/4 158/1/4 160/1/4
f 161/1/4 162/1/4 163/1/4
f 163/1/4 162/1/4 164/1/4
f 165/1/4 166/1/4 167/1/4
f 167/1/4 166/1/4 168/1/4
f 167/4/4 168/4/4 172/4/4
f 172/4/4 168/4/4 173/4/4
f 173/4/4 168/4/4 174/4/4
f 169/2/4 170/2/4 176/2/4
f 170/3/4 171/3/4 177/3/4
f 176/2/4 170/2/4 177/2/4
f 177/3/4 171/3/4 178/3/4
f 178/3/4 171/3/4 181/3/4
f 173/1/4 174/1/4 182/1/4
f 174/1/4 175/1/4 182/1/4
f 172/4/4 173/4/4 182/4/4
f 182/1/4 175/1/4 183/1/4
f 183/1/4 175/1/4 184/1/4
f 179/2/4 180/2/4 185/2/4
f 180/3/4 181/3/4 186/3/4
f 185/2/4 180/2/4 186/2/4
f 181/3/4 171/3/4 187/3/4
f 186/3/4 181/3/4 187/3/4
f 171/6/4 172/6/4 187/6/4
f 182/4/4 183/4/4 188/4/4
f 187/6/4 172/6/4 188/6/4
f 172/4/4 182/4/4 188/4/4
f 188/4/4 183/4/4 189/4/4
f 189/4/4 183/4/4 190/4/4
f 189/1/4 190/1/4 191/1/4
f 191/1/4 190/1/4 192/1/4
f 193/1/4 194/1/4 196/1/4
f 194/5/4 195/5/4 196/5/4
f 196/5/4 195/5/4 197/5/4
f 193/1/4 196/1/4 198/1/4
f 196/1/4 197/1/4 198/1/4
f 197/5/4 195/5/4 199/5/4
f 198/1/4 197/1/4 199/1/4
f 193/1/4 198/1/4 200/1/4
f 198/5/4 199/5/4 201/5/4
f 200/1/4 198/1/4 201/1/4
f 199/5/4 195/5/4 202/5/4
f 201/5/4 199/5/4 202/5/4
f 207/2/5 204/2/5 203/2/5
f 208/2/5 204/2/5 207/2/5
f 209/2/5 206/2/5 205/2/5
f 210/2/5 206/2/5 209/2/5
f 213/3/5 212/3/5 211/3/5
f 214/3/5 212/3/5 213/3/5
f 222/1/5 216/1/5 215/1/5
f 223/1/5 220/1/5 219/1/5
f 225/1/5 222/1/5 221/1/5
f 226/1/5 216/1/5 222/1/5
f 226/1/5 222/1/5 225/1/5
f 227/1/5 224/1/5 223/1/5
f 227/1/5 223/1/5 219/1/5
f 228/1/5 224/1/5 227/1/5
f 229/1/5 216/1/5 226/1/5
f 230/4/5 217/4/5 216/4/5
f 230/1/5 216/1/5 229/1/5
f 231/4/5 217/4/5 230/4/5
f 232/4/5 219/4/5 218/4/5
f 233/1/5 227/1/5 219/1/5
f 233/4/5 219/4/5 232/4/5
f 234/1/5 227/1/5 233/1/5
f 237/1/5 236/1/5 235/1/5
f 238/1/5 236/1/5 237/1/5
f 239/1/5 237/1/5 235/1/5
f 240/1/5 236/1/5 238/1/5
f 241/1/5 239/1/5 235/1/5
f 241/1/5 240/1/5 239/1/5
f 242/1/5 236/1/5 240/1/5
f 242/1/5 240/1/5 241/1/5
f 245/1/5 244/1/5 243/1/5
f 246/1/5 244/1/5 245/1/5
f 247/2/6 248/2/6 251/2/6
f 251/2/6 248/2/6 252/2/6
f 249/2/6 250/2/6 253/2/6
f 253/2/6 250/2/6 254/2/6
f 255/1/6 256/1/6 262/1/6
f 259/1/6 260/1/6 263/1/6
f 261/1/6 262/1/6 265/1/6
f 262/1/6 256/1/6 266/1/6
f 265/1/6 262/1/6 266/1/6
f 263/1/6 264/1/6 267/1/6
f 259/1/6 263/1/6 267/1/6
f 267/1/6 264/1/6 268/1/6
f 266/1/6 256/1/6 269/1/6
f 256/4/6 257/4/6 270/4/6
f 269/1/6 256/1/6 270/1/6
f 270/4/6 257/4/6 271/4/6
f 258/4/6 259/4/6 272/4/6
f 259/1/6 267/1/6 273/1/6
f 272/4/6 259/4/6 273/4/6
f 273/1/6 267/1/6 274/1/6
f 275/1/6 276/1/6 277/1/6
f 277/1/6 276/1/6 278/1/6
f 279/5/6 280/5/6 281/5/6
f 281/5/6 280/5/6 282/5/6